<svg width="489" height="105" viewBox="0 0 489 105" fill="none" xmlns="http://www.w3.org/2000/svg">
  <path d="M53.1652 7.52444C41.7477 3.36881 29.1231 9.25572 24.9675 20.6732L7.52447 68.5976C3.36884 80.0151 9.25575 92.6396 20.6733 96.7952C32.0908 100.951 44.7153 95.064 48.871 83.6464L66.314 35.7221C70.4696 24.3046 64.5827 11.6801 53.1652 7.52444Z" fill="url(#paint0_linear_9_2)" />
  <path d="M78.1131 7.52446C66.6956 11.6801 60.8087 24.3046 64.9643 35.7221L82.4074 83.6465C86.563 95.064 99.1875 100.951 110.605 96.7953C122.023 92.6396 127.909 80.0151 123.754 68.5976L106.311 20.6733C102.155 9.25574 89.5306 3.36883 78.1131 7.52446Z" fill="#FF66DE" />
  <path d="M93.1652 7.52444C81.7477 3.36881 69.1231 9.25572 64.9675 20.6732L47.5245 68.5976C43.3688 80.0151 49.2558 92.6396 60.6733 96.7952C72.0908 100.951 84.7153 95.064 88.871 83.6464L106.314 35.7221C110.47 24.3046 104.583 11.6801 93.1652 7.52444Z" fill="url(#paint1_linear_9_2)" />
  <path d="M158.368 26.7508H175.57L187.402 55.586H187.998L199.831 26.7508H217.033V77.6599H203.51V48.228H203.112L191.777 77.2621H183.623L172.288 48.0292H171.891V77.6599H158.368V26.7508ZM223.782 77.6599V39.478H237.503V77.6599H223.782ZM230.642 35.5008C228.786 35.5008 227.195 34.8876 225.87 33.6613C224.544 32.4349 223.881 30.96 223.881 29.2366C223.881 27.5131 224.544 26.0382 225.87 24.8118C227.195 23.5855 228.786 22.9724 230.642 22.9724C232.515 22.9724 234.106 23.5855 235.415 24.8118C236.741 26.0382 237.404 27.5131 237.404 29.2366C237.404 30.96 236.741 32.4349 235.415 33.6613C234.106 34.8876 232.515 35.5008 230.642 35.5008ZM262.889 78.3559C258.746 78.3559 255.2 77.5356 252.25 75.8949C249.3 74.2377 247.038 71.9342 245.464 68.9844C243.89 66.018 243.102 62.5794 243.102 58.6684C243.102 54.7574 243.89 51.327 245.464 48.3772C247.038 45.4108 249.3 43.1073 252.25 41.4667C255.2 39.8095 258.746 38.9809 262.889 38.9809C266.635 38.9809 269.874 39.6603 272.609 41.0192C275.36 42.3616 277.489 44.2673 278.997 46.7366C280.505 49.1892 281.268 52.0727 281.284 55.3871H268.557C268.375 53.3819 267.795 51.8573 266.817 50.8133C265.856 49.7527 264.613 49.2224 263.088 49.2224C261.895 49.2224 260.851 49.5704 259.956 50.2664C259.061 50.9458 258.365 51.9816 257.868 53.3736C257.371 54.7491 257.122 56.4809 257.122 58.5689C257.122 60.657 257.371 62.3971 257.868 63.7891C258.365 65.1646 259.061 66.2003 259.956 66.8964C260.851 67.5758 261.895 67.9155 263.088 67.9155C264.099 67.9155 264.994 67.6835 265.773 67.2195C266.552 66.7389 267.181 66.0429 267.662 65.1314C268.159 64.2034 268.457 63.0765 268.557 61.7508H281.284C281.234 65.1149 280.464 68.0481 278.972 70.5505C277.481 73.0363 275.368 74.9586 272.634 76.3175C269.916 77.6764 266.668 78.3559 262.889 78.3559ZM286.946 77.6599V39.478H300.269V46.7366H300.667C301.363 44.0519 302.465 42.0881 303.973 40.8452C305.498 39.6023 307.279 38.9809 309.318 38.9809C309.914 38.9809 310.503 39.0306 311.083 39.13C311.679 39.2129 312.251 39.3372 312.798 39.5029V51.211C312.118 50.979 311.282 50.805 310.287 50.689C309.293 50.573 308.439 50.515 307.727 50.515C306.384 50.515 305.175 50.8215 304.098 51.4347C303.037 52.0313 302.2 52.8765 301.587 53.9702C300.974 55.0474 300.667 56.3152 300.667 57.7735V77.6599H286.946ZM333.505 78.3559C329.362 78.3559 325.815 77.5356 322.865 75.8949C319.916 74.2377 317.653 71.9342 316.079 68.9844C314.505 66.018 313.718 62.5794 313.718 58.6684C313.718 54.7574 314.505 51.327 316.079 48.3772C317.653 45.4108 319.916 43.1073 322.865 41.4667C325.815 39.8095 329.362 38.9809 333.505 38.9809C337.648 38.9809 341.194 39.8095 344.144 41.4667C347.094 43.1073 349.356 45.4108 350.93 48.3772C352.504 51.327 353.291 54.7574 353.291 58.6684C353.291 62.5794 352.504 66.018 350.93 68.9844C349.356 71.9342 347.094 74.2377 344.144 75.8949C341.194 77.5356 337.648 78.3559 333.505 78.3559ZM333.604 68.2138C334.764 68.2138 335.767 67.8244 336.612 67.0455C337.457 66.2666 338.112 65.1563 338.576 63.7145C339.04 62.2728 339.272 60.5576 339.272 58.5689C339.272 56.5637 339.04 54.8485 338.576 53.4233C338.112 51.9816 337.457 50.8713 336.612 50.0924C335.767 49.3135 334.764 48.9241 333.604 48.9241C332.378 48.9241 331.325 49.3135 330.447 50.0924C329.569 50.8713 328.898 51.9816 328.433 53.4233C327.969 54.8485 327.737 56.5637 327.737 58.5689C327.737 60.5576 327.969 62.2728 328.433 63.7145C328.898 65.1563 329.569 66.2666 330.447 67.0455C331.325 67.8244 332.378 68.2138 333.604 68.2138ZM371.189 68.6116L371.289 52.3047H373.078L382.326 39.478H397.737L382.226 59.4638H378.348L371.189 68.6116ZM358.86 77.6599V26.7508H372.581V77.6599H358.86ZM382.425 77.6599L373.675 62.5462L382.624 52.8019L398.135 77.6599H382.425ZM401.311 77.6599V39.478H415.032V77.6599H401.311ZM408.172 35.5008C406.316 35.5008 404.725 34.8876 403.399 33.6613C402.073 32.4349 401.41 30.96 401.41 29.2366C401.41 27.5131 402.073 26.0382 403.399 24.8118C404.725 23.5855 406.316 22.9724 408.172 22.9724C410.044 22.9724 411.635 23.5855 412.944 24.8118C414.27 26.0382 414.933 27.5131 414.933 29.2366C414.933 30.96 414.27 32.4349 412.944 33.6613C411.635 34.8876 410.044 35.5008 408.172 35.5008ZM444.794 39.478V49.4212H419.637V39.478H444.794ZM424.509 30.3303H438.231V65.38C438.231 65.9103 438.322 66.3578 438.505 66.7224C438.687 67.0704 438.969 67.3355 439.35 67.5178C439.731 67.6835 440.22 67.7664 440.816 67.7664C441.231 67.7664 441.711 67.7167 442.258 67.6172C442.822 67.5178 443.236 67.4349 443.501 67.3687L445.49 77.0135C444.876 77.1958 443.998 77.4196 442.855 77.6847C441.728 77.9499 440.385 78.1239 438.828 78.2067C435.679 78.3724 433.036 78.0493 430.898 77.2373C428.76 76.4087 427.153 75.1078 426.076 73.3346C424.998 71.5614 424.476 69.3407 424.509 66.6726V30.3303ZM484.883 51.907H472.255C472.189 51.1281 471.916 50.457 471.435 49.8935C470.955 49.3301 470.333 48.8992 469.571 48.6009C468.825 48.286 467.996 48.1286 467.085 48.1286C465.908 48.1286 464.897 48.344 464.052 48.7749C463.207 49.2058 462.793 49.8189 462.809 50.6144C462.793 51.1778 463.033 51.6999 463.53 52.1804C464.044 52.661 465.03 53.0339 466.488 53.2991L474.244 54.6911C478.155 55.4037 481.063 56.6052 482.969 58.2955C484.892 59.9693 485.861 62.2148 485.878 65.032C485.861 67.7498 485.049 70.1113 483.441 72.1165C481.851 74.1052 479.671 75.6464 476.904 76.7401C474.153 77.8173 471.013 78.3559 467.483 78.3559C461.649 78.3559 457.084 77.1627 453.786 74.7763C450.505 72.39 448.673 69.2413 448.292 65.3303H461.914C462.097 66.5401 462.693 67.4764 463.704 68.1393C464.732 68.7856 466.024 69.1087 467.582 69.1087C468.842 69.1087 469.877 68.8933 470.689 68.4624C471.518 68.0315 471.941 67.4184 471.957 66.6229C471.941 65.8938 471.576 65.3137 470.863 64.8829C470.167 64.452 469.074 64.104 467.582 63.8388L460.821 62.6456C456.926 61.9662 454.01 60.6736 452.071 58.7678C450.132 56.862 449.171 54.4094 449.187 51.4099C449.171 48.7583 449.867 46.5128 451.275 44.6733C452.7 42.8173 454.731 41.4087 457.365 40.4475C460.017 39.4697 463.157 38.9809 466.787 38.9809C472.305 38.9809 476.655 40.1243 479.837 42.4113C483.035 44.6982 484.718 47.8634 484.883 51.907Z" fill="white" />
  <defs>
    <linearGradient id="paint0_linear_9_2" x1="53.1652" y1="7.52444" x2="20.6733" y2="96.7952" gradientUnits="userSpaceOnUse">
      <stop stop-color="#FF66DE" />
      <stop offset="1" stop-color="#00D4FF" />
    </linearGradient>
    <linearGradient id="paint1_linear_9_2" x1="93.1652" y1="7.52444" x2="60.6733" y2="96.7952" gradientUnits="userSpaceOnUse">
      <stop stop-color="#FF66DE" />
      <stop offset="1" stop-color="#00D4FF" />
    </linearGradient>
  </defs>
</svg>