<svg width="511" height="110" viewBox="0 0 511 110" fill="none" xmlns="http://www.w3.org/2000/svg">
  <path d="M3.28125 17.0909H20.483L32.3153 45.9261H32.9119L44.7443 17.0909H61.946V68H48.4233V38.5682H48.0256L36.6903 67.6023H28.5369L17.2017 38.3693H16.804V68H3.28125V17.0909ZM68.695 68V29.8182H82.4165V68H68.695ZM75.5558 25.8409C73.6997 25.8409 72.1088 25.2277 70.783 24.0014C69.4573 22.7751 68.7944 21.3002 68.7944 19.5767C68.7944 17.8532 69.4573 16.3783 70.783 15.152C72.1088 13.9257 73.6997 13.3125 75.5558 13.3125C77.4284 13.3125 79.0193 13.9257 80.3285 15.152C81.6542 16.3783 82.3171 17.8532 82.3171 19.5767C82.3171 21.3002 81.6542 22.7751 80.3285 24.0014C79.0193 25.2277 77.4284 25.8409 75.5558 25.8409ZM107.803 68.696C103.66 68.696 100.113 67.8757 97.1635 66.2351C94.2137 64.5779 91.9516 62.2744 90.3773 59.3246C88.803 56.3582 88.0158 52.9195 88.0158 49.0085C88.0158 45.0975 88.803 41.6671 90.3773 38.7173C91.9516 35.7509 94.2137 33.4474 97.1635 31.8068C100.113 30.1496 103.66 29.321 107.803 29.321C111.548 29.321 114.788 30.0005 117.522 31.3594C120.273 32.7017 122.403 34.6075 123.911 37.0767C125.419 39.5294 126.181 42.4129 126.198 45.7273H113.47C113.288 43.7221 112.708 42.1974 111.73 41.1534C110.769 40.0928 109.526 39.5625 108.002 39.5625C106.808 39.5625 105.764 39.9105 104.869 40.6065C103.975 41.286 103.279 42.3217 102.781 43.7138C102.284 45.0893 102.036 46.821 102.036 48.9091C102.036 50.9972 102.284 52.7372 102.781 54.1293C103.279 55.5047 103.975 56.5405 104.869 57.2365C105.764 57.916 106.808 58.2557 108.002 58.2557C109.012 58.2557 109.907 58.0237 110.686 57.5597C111.465 57.0791 112.095 56.383 112.575 55.4716C113.073 54.5436 113.371 53.4167 113.47 52.0909H126.198C126.148 55.455 125.377 58.3883 123.886 60.8906C122.394 63.3764 120.281 65.2988 117.547 66.6577C114.829 68.0166 111.581 68.696 107.803 68.696ZM131.859 68V29.8182H145.183V37.0767H145.581C146.277 34.392 147.379 32.4283 148.887 31.1854C150.411 29.9425 152.193 29.321 154.231 29.321C154.828 29.321 155.416 29.3707 155.996 29.4702C156.593 29.553 157.164 29.6773 157.711 29.843V41.5511C157.032 41.3191 156.195 41.1451 155.201 41.0291C154.206 40.9131 153.353 40.8551 152.64 40.8551C151.298 40.8551 150.088 41.1617 149.011 41.7749C147.95 42.3714 147.114 43.2166 146.5 44.3104C145.887 45.3875 145.581 46.6553 145.581 48.1136V68H131.859ZM178.418 68.696C174.275 68.696 170.729 67.8757 167.779 66.2351C164.829 64.5779 162.567 62.2744 160.993 59.3246C159.418 56.3582 158.631 52.9195 158.631 49.0085C158.631 45.0975 159.418 41.6671 160.993 38.7173C162.567 35.7509 164.829 33.4474 167.779 31.8068C170.729 30.1496 174.275 29.321 178.418 29.321C182.561 29.321 186.107 30.1496 189.057 31.8068C192.007 33.4474 194.269 35.7509 195.843 38.7173C197.418 41.6671 198.205 45.0975 198.205 49.0085C198.205 52.9195 197.418 56.3582 195.843 59.3246C194.269 62.2744 192.007 64.5779 189.057 66.2351C186.107 67.8757 182.561 68.696 178.418 68.696ZM178.517 58.554C179.677 58.554 180.68 58.1645 181.525 57.3857C182.37 56.6068 183.025 55.4964 183.489 54.0547C183.953 52.6129 184.185 50.8977 184.185 48.9091C184.185 46.9039 183.953 45.1887 183.489 43.7635C183.025 42.3217 182.37 41.2114 181.525 40.4325C180.68 39.6536 179.677 39.2642 178.517 39.2642C177.291 39.2642 176.239 39.6536 175.36 40.4325C174.482 41.2114 173.811 42.3217 173.347 43.7635C172.883 45.1887 172.651 46.9039 172.651 48.9091C172.651 50.8977 172.883 52.6129 173.347 54.0547C173.811 55.4964 174.482 56.6068 175.36 57.3857C176.239 58.1645 177.291 58.554 178.517 58.554ZM203.773 68V29.8182H217.495V68H203.773ZM210.634 25.8409C208.778 25.8409 207.187 25.2277 205.861 24.0014C204.535 22.7751 203.873 21.3002 203.873 19.5767C203.873 17.8532 204.535 16.3783 205.861 15.152C207.187 13.9257 208.778 13.3125 210.634 13.3125C212.507 13.3125 214.097 13.9257 215.407 15.152C216.732 16.3783 217.395 17.8532 217.395 19.5767C217.395 21.3002 216.732 22.7751 215.407 24.0014C214.097 25.2277 212.507 25.8409 210.634 25.8409ZM238.208 46.5227V68H224.486V29.8182H237.512V37.0767H237.909C238.738 34.6572 240.196 32.7597 242.284 31.3842C244.389 30.0088 246.842 29.321 249.642 29.321C252.343 29.321 254.688 29.9425 256.677 31.1854C258.682 32.4117 260.232 34.102 261.325 36.2564C262.436 38.4107 262.983 40.8717 262.966 43.6392V68H249.244V46.5227C249.261 44.6335 248.78 43.1503 247.803 42.0732C246.842 40.996 245.499 40.4574 243.776 40.4574C242.649 40.4574 241.663 40.706 240.818 41.2031C239.989 41.6837 239.351 42.3797 238.904 43.2912C238.456 44.1861 238.224 45.2633 238.208 46.5227ZM269.74 29.8182H283.461V69.2926C283.461 72.6402 282.757 75.2585 281.349 77.1477C279.956 79.0369 278.001 80.371 275.482 81.1499C272.963 81.9287 270.022 82.3182 266.657 82.3182C266.16 82.3182 265.705 82.3099 265.29 82.2933C264.859 82.2768 264.387 82.2519 263.873 82.2188V72.0767C264.205 72.1098 264.495 72.1347 264.743 72.1513C264.975 72.1679 265.216 72.1761 265.464 72.1761C267.105 72.1761 268.224 71.9193 268.82 71.4055C269.433 70.9084 269.74 70.1046 269.74 68.9943V29.8182ZM276.601 25.8409C274.745 25.8409 273.154 25.2277 271.828 24.0014C270.502 22.7751 269.839 21.3002 269.839 19.5767C269.839 17.8532 270.502 16.3783 271.828 15.152C273.154 13.9257 274.745 13.3125 276.601 13.3125C278.473 13.3125 280.064 13.9257 281.373 15.152C282.699 16.3783 283.362 17.8532 283.362 19.5767C283.362 21.3002 282.699 22.7751 281.373 24.0014C280.064 25.2277 278.473 25.8409 276.601 25.8409ZM308.748 68.696C304.672 68.696 301.158 67.9171 298.208 66.3594C295.275 64.785 293.013 62.5312 291.422 59.598C289.848 56.6482 289.061 53.1184 289.061 49.0085C289.061 45.0644 289.856 41.6174 291.447 38.6676C293.038 35.7178 295.283 33.4226 298.184 31.782C301.084 30.1413 304.506 29.321 308.45 29.321C311.333 29.321 313.944 29.7685 316.28 30.6634C318.617 31.5582 320.614 32.8591 322.271 34.5661C323.928 36.2564 325.204 38.3113 326.099 40.7308C326.994 43.1503 327.441 45.8764 327.441 48.9091V52.0909H293.336V44.5341H314.814C314.797 43.4403 314.515 42.4792 313.968 41.6506C313.438 40.8054 312.717 40.1508 311.806 39.6868C310.911 39.2062 309.892 38.9659 308.748 38.9659C307.638 38.9659 306.619 39.2062 305.691 39.6868C304.763 40.1508 304.017 40.7971 303.453 41.6257C302.907 42.4543 302.617 43.4238 302.583 44.5341V52.6875C302.583 53.9138 302.84 55.0076 303.354 55.9688C303.868 56.9299 304.605 57.6839 305.566 58.2308C306.528 58.7777 307.688 59.0511 309.047 59.0511C309.991 59.0511 310.853 58.9186 311.632 58.6534C312.427 58.3883 313.107 58.0071 313.67 57.5099C314.234 56.9962 314.648 56.383 314.913 55.6705H327.441C327.011 58.322 325.991 60.6255 324.384 62.581C322.776 64.5199 320.647 66.0279 317.995 67.1051C315.36 68.1657 312.278 68.696 308.748 68.696ZM351.436 68.696C347.293 68.696 343.746 67.8757 340.796 66.2351C337.847 64.5779 335.584 62.2744 334.01 59.3246C332.436 56.3582 331.649 52.9195 331.649 49.0085C331.649 45.0975 332.436 41.6671 334.01 38.7173C335.584 35.7509 337.847 33.4474 340.796 31.8068C343.746 30.1496 347.293 29.321 351.436 29.321C355.181 29.321 358.421 30.0005 361.155 31.3594C363.906 32.7017 366.035 34.6075 367.544 37.0767C369.052 39.5294 369.814 42.4129 369.83 45.7273H357.103C356.921 43.7221 356.341 42.1974 355.363 41.1534C354.402 40.0928 353.159 39.5625 351.634 39.5625C350.441 39.5625 349.397 39.9105 348.502 40.6065C347.607 41.286 346.911 42.3217 346.414 43.7138C345.917 45.0893 345.669 46.821 345.669 48.9091C345.669 50.9972 345.917 52.7372 346.414 54.1293C346.911 55.5047 347.607 56.5405 348.502 57.2365C349.397 57.916 350.441 58.2557 351.634 58.2557C352.645 58.2557 353.54 58.0237 354.319 57.5597C355.098 57.0791 355.728 56.383 356.208 55.4716C356.705 54.5436 357.004 53.4167 357.103 52.0909H369.83C369.781 55.455 369.01 58.3883 367.519 60.8906C366.027 63.3764 363.914 65.2988 361.18 66.6577C358.462 68.0166 355.214 68.696 351.436 68.696ZM398.262 29.8182V39.7614H373.105V29.8182H398.262ZM377.978 20.6705H391.699V55.7202C391.699 56.2505 391.79 56.6979 391.973 57.0625C392.155 57.4105 392.437 57.6757 392.818 57.858C393.199 58.0237 393.688 58.1065 394.284 58.1065C394.699 58.1065 395.179 58.0568 395.726 57.9574C396.29 57.858 396.704 57.7751 396.969 57.7088L398.958 67.3537C398.345 67.536 397.466 67.7597 396.323 68.0249C395.196 68.29 393.854 68.464 392.296 68.5469C389.147 68.7126 386.504 68.3894 384.366 67.5774C382.228 66.7488 380.621 65.4479 379.544 63.6747C378.467 61.9015 377.944 59.6809 377.978 57.0128V20.6705ZM403.861 68V29.8182H417.583V68H403.861ZM410.722 25.8409C408.866 25.8409 407.275 25.2277 405.949 24.0014C404.623 22.7751 403.96 21.3002 403.96 19.5767C403.96 17.8532 404.623 16.3783 405.949 15.152C407.275 13.9257 408.866 13.3125 410.722 13.3125C412.594 13.3125 414.185 13.9257 415.494 15.152C416.82 16.3783 417.483 17.8532 417.483 19.5767C417.483 21.3002 416.82 22.7751 415.494 24.0014C414.185 25.2277 412.594 25.8409 410.722 25.8409ZM442.969 68.696C438.826 68.696 435.279 67.8757 432.33 66.2351C429.38 64.5779 427.118 62.2744 425.543 59.3246C423.969 56.3582 423.182 52.9195 423.182 49.0085C423.182 45.0975 423.969 41.6671 425.543 38.7173C427.118 35.7509 429.38 33.4474 432.33 31.8068C435.279 30.1496 438.826 29.321 442.969 29.321C447.112 29.321 450.658 30.1496 453.608 31.8068C456.558 33.4474 458.82 35.7509 460.394 38.7173C461.969 41.6671 462.756 45.0975 462.756 49.0085C462.756 52.9195 461.969 56.3582 460.394 59.3246C458.82 62.2744 456.558 64.5779 453.608 66.2351C450.658 67.8757 447.112 68.696 442.969 68.696ZM443.068 58.554C444.228 58.554 445.231 58.1645 446.076 57.3857C446.921 56.6068 447.576 55.4964 448.04 54.0547C448.504 52.6129 448.736 50.8977 448.736 48.9091C448.736 46.9039 448.504 45.1887 448.04 43.7635C447.576 42.3217 446.921 41.2114 446.076 40.4325C445.231 39.6536 444.228 39.2642 443.068 39.2642C441.842 39.2642 440.79 39.6536 439.911 40.4325C439.033 41.2114 438.362 42.3217 437.898 43.7635C437.434 45.1887 437.202 46.9039 437.202 48.9091C437.202 50.8977 437.434 52.6129 437.898 54.0547C438.362 55.4964 439.033 56.6068 439.911 57.3857C440.79 58.1645 441.842 58.554 443.068 58.554ZM482.045 46.5227V68H468.324V29.8182H481.349V37.0767H481.747C482.576 34.6572 484.034 32.7597 486.122 31.3842C488.227 30.0088 490.679 29.321 493.48 29.321C496.181 29.321 498.526 29.9425 500.515 31.1854C502.52 32.4117 504.07 34.102 505.163 36.2564C506.274 38.4107 506.821 40.8717 506.804 43.6392V68H493.082V46.5227C493.099 44.6335 492.618 43.1503 491.641 42.0732C490.679 40.996 489.337 40.4574 487.614 40.4574C486.487 40.4574 485.501 40.706 484.656 41.2031C483.827 41.6837 483.189 42.3797 482.741 43.2912C482.294 44.1861 482.062 45.2633 482.045 46.5227Z" fill="url(#paint0_linear_16_18)" />
  <path d="M325.406 102.34V80.5219H334.866C336.528 80.5219 337.924 80.7456 339.053 81.1931C340.19 81.6405 341.045 82.2726 341.621 83.0894C342.203 83.9061 342.494 84.8685 342.494 85.9765C342.494 86.779 342.317 87.5105 341.962 88.1711C341.614 88.8316 341.124 89.3855 340.491 89.833C339.859 90.2733 339.121 90.5787 338.276 90.7492V90.9622C339.213 90.9978 340.065 91.2357 340.832 91.676C341.599 92.1093 342.21 92.7094 342.665 93.4765C343.119 94.2364 343.347 95.1313 343.347 96.1611C343.347 97.3543 343.034 98.4161 342.409 99.3465C341.791 100.277 340.911 101.008 339.767 101.541C338.624 102.074 337.26 102.34 335.676 102.34H325.406ZM331.33 97.61H334.099C335.094 97.61 335.839 97.4253 336.337 97.056C336.834 96.6796 337.082 96.1256 337.082 95.3941C337.082 94.8827 336.965 94.4495 336.731 94.0943C336.496 93.7392 336.163 93.4693 335.729 93.2847C335.303 93.1 334.788 93.0077 334.185 93.0077H331.33V97.61ZM331.33 89.3429H333.759C334.277 89.3429 334.735 89.2613 335.133 89.0979C335.531 88.9345 335.839 88.7002 336.06 88.3948C336.287 88.0823 336.401 87.7023 336.401 87.2549C336.401 86.5801 336.159 86.0652 335.676 85.7101C335.193 85.3479 334.582 85.1668 333.844 85.1668H331.33V89.3429ZM349.11 108.476C348.435 108.476 347.793 108.423 347.182 108.317C346.571 108.217 346.035 108.079 345.573 107.901L346.852 103.725C347.335 103.895 347.775 104.006 348.173 104.055C348.577 104.105 348.922 104.077 349.206 103.97C349.497 103.864 349.707 103.661 349.835 103.363L349.962 103.065L344.21 85.9765H350.346L352.988 97.3117H353.158L355.843 85.9765H362.022L356.056 103.704C355.758 104.606 355.325 105.415 354.756 106.133C354.195 106.857 353.457 107.429 352.54 107.848C351.624 108.267 350.481 108.476 349.11 108.476ZM369.586 80.5219H376.958L382.029 92.8799H382.285L387.356 80.5219H394.728V102.34H388.933V89.7265H388.762L383.904 102.17H380.41L375.552 89.6412H375.381V102.34H369.586V80.5219ZM397.62 102.34V85.9765H403.501V102.34H397.62ZM400.561 84.2719C399.765 84.2719 399.083 84.0091 398.515 83.4836C397.947 82.958 397.663 82.3259 397.663 81.5872C397.663 80.8486 397.947 80.2165 398.515 79.6909C399.083 79.1654 399.765 78.9026 400.561 78.9026C401.363 78.9026 402.045 79.1654 402.606 79.6909C403.174 80.2165 403.458 80.8486 403.458 81.5872C403.458 82.3259 403.174 82.958 402.606 83.4836C402.045 84.0091 401.363 84.2719 400.561 84.2719ZM414.381 102.638C412.605 102.638 411.085 102.287 409.821 101.584C408.557 100.873 407.588 99.8863 406.913 98.622C406.238 97.3507 405.901 95.877 405.901 94.2009C405.901 92.5247 406.238 91.0546 406.913 89.7904C407.588 88.5191 408.557 87.5318 409.821 86.8287C411.085 86.1185 412.605 85.7634 414.381 85.7634C415.986 85.7634 417.374 86.0546 418.546 86.637C419.725 87.2122 420.638 88.029 421.284 89.0872C421.931 90.1384 422.257 91.3742 422.264 92.7946H416.81C416.732 91.9353 416.483 91.2818 416.064 90.8344C415.652 90.3799 415.119 90.1526 414.466 90.1526C413.955 90.1526 413.507 90.3017 413.124 90.6C412.74 90.8912 412.442 91.3351 412.229 91.9317C412.016 92.5212 411.909 93.2634 411.909 94.1583C411.909 95.0532 412.016 95.7989 412.229 96.3955C412.442 96.985 412.74 97.4289 413.124 97.7272C413.507 98.0184 413.955 98.164 414.466 98.164C414.899 98.164 415.283 98.0645 415.617 97.8657C415.95 97.6597 416.22 97.3614 416.426 96.9708C416.639 96.573 416.767 96.0901 416.81 95.5219H422.264C422.243 96.9637 421.913 98.2208 421.274 99.2932C420.634 100.359 419.729 101.182 418.557 101.765C417.392 102.347 416 102.638 414.381 102.638ZM424.691 102.34V85.9765H430.401V89.0872H430.571C430.87 87.9367 431.342 87.0951 431.988 86.5624C432.642 86.0297 433.405 85.7634 434.279 85.7634C434.534 85.7634 434.787 85.7847 435.035 85.8273C435.291 85.8628 435.536 85.9161 435.77 85.9871V91.0049C435.479 90.9054 435.12 90.8309 434.694 90.7811C434.268 90.7314 433.902 90.7066 433.597 90.7066C433.022 90.7066 432.503 90.838 432.042 91.1007C431.587 91.3564 431.228 91.7186 430.966 92.1874C430.703 92.649 430.571 93.1924 430.571 93.8174V102.34H424.691ZM444.645 102.638C442.869 102.638 441.349 102.287 440.085 101.584C438.821 100.873 437.851 99.8863 437.176 98.622C436.502 97.3507 436.164 95.877 436.164 94.2009C436.164 92.5247 436.502 91.0546 437.176 89.7904C437.851 88.5191 438.821 87.5318 440.085 86.8287C441.349 86.1185 442.869 85.7634 444.645 85.7634C446.42 85.7634 447.94 86.1185 449.204 86.8287C450.468 87.5318 451.438 88.5191 452.113 89.7904C452.787 91.0546 453.125 92.5247 453.125 94.2009C453.125 95.877 452.787 97.3507 452.113 98.622C451.438 99.8863 450.468 100.873 449.204 101.584C447.94 102.287 446.42 102.638 444.645 102.638ZM444.687 98.2918C445.184 98.2918 445.614 98.1249 445.976 97.7911C446.338 97.4573 446.619 96.9814 446.818 96.3635C447.017 95.7456 447.116 95.0105 447.116 94.1583C447.116 93.2989 447.017 92.5638 446.818 91.953C446.619 91.3351 446.338 90.8593 445.976 90.5255C445.614 90.1917 445.184 90.0247 444.687 90.0247C444.162 90.0247 443.711 90.1917 443.334 90.5255C442.958 90.8593 442.67 91.3351 442.471 91.953C442.272 92.5638 442.173 93.2989 442.173 94.1583C442.173 95.0105 442.272 95.7456 442.471 96.3635C442.67 96.9814 442.958 97.4573 443.334 97.7911C443.711 98.1249 444.162 98.2918 444.687 98.2918ZM460.795 98.4622L460.838 91.4736H461.605L465.568 85.9765H472.173L465.525 94.5418H463.863L460.795 98.4622ZM455.511 102.34V80.5219H461.392V102.34H455.511ZM465.61 102.34L461.86 95.8628L465.696 91.6867L472.343 102.34H465.61ZM473.704 102.34V85.9765H479.585V102.34H473.704ZM476.645 84.2719C475.849 84.2719 475.167 84.0091 474.599 83.4836C474.031 82.958 473.747 82.3259 473.747 81.5872C473.747 80.8486 474.031 80.2165 474.599 79.6909C475.167 79.1654 475.849 78.9026 476.645 78.9026C477.447 78.9026 478.129 79.1654 478.69 79.6909C479.258 80.2165 479.542 80.8486 479.542 81.5872C479.542 82.3259 479.258 82.958 478.69 83.4836C478.129 84.0091 477.447 84.2719 476.645 84.2719ZM492.34 85.9765V90.2378H481.559V85.9765H492.34ZM483.647 82.056H489.527V97.0773C489.527 97.3046 489.566 97.4963 489.645 97.6526C489.723 97.8017 489.843 97.9154 490.007 97.9935C490.17 98.0645 490.38 98.1 490.635 98.1C490.813 98.1 491.019 98.0787 491.253 98.0361C491.495 97.9935 491.672 97.958 491.786 97.9296L492.638 102.063C492.375 102.141 491.999 102.237 491.509 102.351C491.026 102.464 490.451 102.539 489.783 102.574C488.434 102.645 487.301 102.507 486.385 102.159C485.468 101.804 484.779 101.246 484.318 100.486C483.856 99.7265 483.632 98.7747 483.647 97.6313V82.056ZM509.521 91.3032H504.109C504.081 90.9693 503.964 90.6817 503.758 90.4402C503.552 90.1988 503.285 90.0141 502.959 89.8863C502.639 89.7513 502.284 89.6838 501.893 89.6838C501.389 89.6838 500.956 89.7762 500.594 89.9608C500.231 90.1455 500.054 90.4083 500.061 90.7492C500.054 90.9907 500.157 91.2144 500.37 91.4203C500.59 91.6263 501.013 91.7861 501.638 91.8997L504.961 92.4963C506.638 92.8017 507.884 93.3167 508.701 94.0411C509.525 94.7584 509.94 95.7208 509.947 96.9282C509.94 98.0929 509.592 99.105 508.903 99.9644C508.221 100.817 507.287 101.477 506.101 101.946C504.922 102.408 503.577 102.638 502.064 102.638C499.564 102.638 497.607 102.127 496.194 101.104C494.787 100.082 494.003 98.7321 493.839 97.056H499.677C499.756 97.5745 500.011 97.9757 500.444 98.2598C500.885 98.5368 501.439 98.6753 502.106 98.6753C502.646 98.6753 503.09 98.583 503.438 98.3983C503.793 98.2137 503.974 97.9509 503.981 97.61C503.974 97.2975 503.818 97.0489 503.513 96.8642C503.214 96.6796 502.746 96.5304 502.106 96.4168L499.209 95.9054C497.54 95.6142 496.29 95.0603 495.459 94.2435C494.628 93.4267 494.216 92.3756 494.223 91.0901C494.216 89.9537 494.514 88.9914 495.118 88.203C495.729 87.4076 496.599 86.8039 497.728 86.3919C498.864 85.9729 500.21 85.7634 501.765 85.7634C504.131 85.7634 505.995 86.2534 507.358 87.2336C508.729 88.2137 509.45 89.5702 509.521 91.3032Z" fill="white" />
  <defs>
    <linearGradient id="paint0_linear_16_18" x1="-7.23376e-07" y1="68" x2="511" y2="68" gradientUnits="userSpaceOnUse">
      <stop stop-color="#FF66DE" />
      <stop offset="1" stop-color="#00D4FF" />
    </linearGradient>
  </defs>
</svg>