<svg width="333" height="196" viewBox="0 0 333 196" fill="none" xmlns="http://www.w3.org/2000/svg">
  <path d="M157.122 8.36459C145.704 4.20896 133.08 10.0959 128.924 21.5134L111.481 69.4377C107.326 80.8552 113.213 93.4798 124.63 97.6354C136.048 101.791 148.672 95.9041 152.828 84.4866L170.271 36.5623C174.426 25.1448 168.539 12.5202 157.122 8.36459Z" fill="url(#paint0_linear_7_91)" />
  <path d="M182.07 8.36461C170.652 12.5202 164.765 25.1448 168.921 36.5623L186.364 84.4866C190.52 95.9041 203.144 101.791 214.562 97.6354C225.979 93.4798 231.866 80.8552 227.711 69.4377L210.268 21.5134C206.112 10.0959 193.487 4.20897 182.07 8.36461Z" fill="#FF66DE" />
  <path d="M197.122 8.36459C185.704 4.20896 173.08 10.0959 168.924 21.5134L151.481 69.4377C147.326 80.8552 153.213 93.4798 164.63 97.6354C176.048 101.791 188.672 95.9041 192.828 84.4866L210.271 36.5623C214.426 25.1448 208.539 12.5202 197.122 8.36459Z" fill="url(#paint1_linear_7_91)" />
  <path d="M3.28125 127.251H20.483L32.3153 156.086H32.9119L44.7443 127.251H61.946V178.16H48.4233V148.728H48.0256L36.6903 177.762H28.5369L17.2017 148.529H16.804V178.16H3.28125V127.251ZM68.695 178.16V139.978H82.4165V178.16H68.695ZM75.5558 136.001C73.6997 136.001 72.1088 135.388 70.783 134.161C69.4573 132.935 68.7944 131.46 68.7944 129.737C68.7944 128.013 69.4573 126.538 70.783 125.312C72.1088 124.086 73.6997 123.472 75.5558 123.472C77.4284 123.472 79.0193 124.086 80.3285 125.312C81.6542 126.538 82.3171 128.013 82.3171 129.737C82.3171 131.46 81.6542 132.935 80.3285 134.161C79.0193 135.388 77.4284 136.001 75.5558 136.001ZM107.803 178.856C103.66 178.856 100.113 178.036 97.1635 176.395C94.2137 174.738 91.9516 172.434 90.3773 169.484C88.803 166.518 88.0158 163.079 88.0158 159.168C88.0158 155.257 88.803 151.827 90.3773 148.877C91.9516 145.911 94.2137 143.607 97.1635 141.967C100.113 140.31 103.66 139.481 107.803 139.481C111.548 139.481 114.788 140.16 117.522 141.519C120.273 142.862 122.403 144.767 123.911 147.237C125.419 149.689 126.181 152.573 126.198 155.887H113.47C113.288 153.882 112.708 152.357 111.73 151.313C110.769 150.253 109.526 149.722 108.002 149.722C106.808 149.722 105.764 150.07 104.869 150.766C103.975 151.446 103.279 152.482 102.781 153.874C102.284 155.249 102.036 156.981 102.036 159.069C102.036 161.157 102.284 162.897 102.781 164.289C103.279 165.665 103.975 166.7 104.869 167.396C105.764 168.076 106.808 168.416 108.002 168.416C109.012 168.416 109.907 168.184 110.686 167.72C111.465 167.239 112.095 166.543 112.575 165.632C113.073 164.703 113.371 163.577 113.47 162.251H126.198C126.148 165.615 125.377 168.548 123.886 171.051C122.394 173.536 120.281 175.459 117.547 176.818C114.829 178.176 111.581 178.856 107.803 178.856ZM131.859 178.16V139.978H145.183V147.237H145.581C146.277 144.552 147.379 142.588 148.887 141.345C150.411 140.102 152.193 139.481 154.231 139.481C154.828 139.481 155.416 139.531 155.996 139.63C156.593 139.713 157.164 139.837 157.711 140.003V151.711C157.032 151.479 156.195 151.305 155.201 151.189C154.206 151.073 153.353 151.015 152.64 151.015C151.298 151.015 150.088 151.322 149.011 151.935C147.95 152.531 147.114 153.377 146.5 154.47C145.887 155.547 145.581 156.815 145.581 158.274V178.16H131.859ZM178.418 178.856C174.275 178.856 170.729 178.036 167.779 176.395C164.829 174.738 162.567 172.434 160.993 169.484C159.418 166.518 158.631 163.079 158.631 159.168C158.631 155.257 159.418 151.827 160.993 148.877C162.567 145.911 164.829 143.607 167.779 141.967C170.729 140.31 174.275 139.481 178.418 139.481C182.561 139.481 186.107 140.31 189.057 141.967C192.007 143.607 194.269 145.911 195.843 148.877C197.418 151.827 198.205 155.257 198.205 159.168C198.205 163.079 197.418 166.518 195.843 169.484C194.269 172.434 192.007 174.738 189.057 176.395C186.107 178.036 182.561 178.856 178.418 178.856ZM178.517 168.714C179.677 168.714 180.68 168.324 181.525 167.546C182.37 166.767 183.025 165.656 183.489 164.215C183.953 162.773 184.185 161.058 184.185 159.069C184.185 157.064 183.953 155.349 183.489 153.923C183.025 152.482 182.37 151.371 181.525 150.592C180.68 149.814 179.677 149.424 178.517 149.424C177.291 149.424 176.239 149.814 175.36 150.592C174.482 151.371 173.811 152.482 173.347 153.923C172.883 155.349 172.651 157.064 172.651 159.069C172.651 161.058 172.883 162.773 173.347 164.215C173.811 165.656 174.482 166.767 175.36 167.546C176.239 168.324 177.291 168.714 178.517 168.714ZM216.103 169.112L216.202 152.805H217.992L227.239 139.978H242.651L227.14 159.964H223.262L216.103 169.112ZM203.773 178.16V127.251H217.495V178.16H203.773ZM227.338 178.16L218.588 163.046L227.537 153.302L243.049 178.16H227.338ZM246.224 178.16V139.978H259.946V178.16H246.224ZM253.085 136.001C251.229 136.001 249.638 135.388 248.312 134.161C246.987 132.935 246.324 131.46 246.324 129.737C246.324 128.013 246.987 126.538 248.312 125.312C249.638 124.086 251.229 123.472 253.085 123.472C254.958 123.472 256.549 124.086 257.858 125.312C259.184 126.538 259.846 128.013 259.846 129.737C259.846 131.46 259.184 132.935 257.858 134.161C256.549 135.388 254.958 136.001 253.085 136.001ZM289.707 139.978V149.921H264.551V139.978H289.707ZM269.423 130.83H283.145V165.88C283.145 166.41 283.236 166.858 283.418 167.222C283.6 167.57 283.882 167.836 284.263 168.018C284.644 168.184 285.133 168.266 285.73 168.266C286.144 168.266 286.625 168.217 287.172 168.117C287.735 168.018 288.149 167.935 288.414 167.869L290.403 177.514C289.79 177.696 288.912 177.92 287.768 178.185C286.641 178.45 285.299 178.624 283.741 178.707C280.592 178.873 277.949 178.549 275.811 177.737C273.674 176.909 272.066 175.608 270.989 173.835C269.912 172.061 269.39 169.841 269.423 167.173V130.83ZM329.797 152.407H317.169C317.103 151.628 316.829 150.957 316.349 150.394C315.868 149.83 315.247 149.399 314.484 149.101C313.738 148.786 312.91 148.629 311.998 148.629C310.822 148.629 309.811 148.844 308.966 149.275C308.121 149.706 307.706 150.319 307.723 151.114C307.706 151.678 307.947 152.2 308.444 152.681C308.957 153.161 309.943 153.534 311.402 153.799L319.157 155.191C323.068 155.904 325.977 157.105 327.883 158.796C329.805 160.469 330.774 162.715 330.791 165.532C330.774 168.25 329.962 170.611 328.355 172.617C326.764 174.605 324.585 176.146 321.817 177.24C319.066 178.317 315.926 178.856 312.396 178.856C306.563 178.856 301.997 177.663 298.699 175.276C295.418 172.89 293.587 169.741 293.206 165.83H306.828C307.01 167.04 307.607 167.976 308.618 168.639C309.645 169.286 310.938 169.609 312.496 169.609C313.755 169.609 314.791 169.393 315.603 168.962C316.431 168.532 316.854 167.918 316.871 167.123C316.854 166.394 316.489 165.814 315.777 165.383C315.081 164.952 313.987 164.604 312.496 164.339L305.734 163.146C301.84 162.466 298.923 161.174 296.984 159.268C295.045 157.362 294.084 154.909 294.101 151.91C294.084 149.258 294.78 147.013 296.189 145.173C297.614 143.317 299.644 141.909 302.279 140.948C304.93 139.97 308.071 139.481 311.7 139.481C317.219 139.481 321.569 140.624 324.751 142.911C327.949 145.198 329.631 148.364 329.797 152.407Z" fill="white" />
  <defs>
    <linearGradient id="paint0_linear_7_91" x1="157.122" y1="8.36459" x2="124.63" y2="97.6354" gradientUnits="userSpaceOnUse">
      <stop stop-color="#FF66DE" />
      <stop offset="1" stop-color="#00D4FF" />
    </linearGradient>
    <linearGradient id="paint1_linear_7_91" x1="197.122" y1="8.36459" x2="164.63" y2="97.6354" gradientUnits="userSpaceOnUse">
      <stop stop-color="#FF66DE" />
      <stop offset="1" stop-color="#00D4FF" />
    </linearGradient>
  </defs>
</svg>
  